<svg viewBox="0 0 100 120" xmlns="http://www.w3.org/2000/svg">
  <style>
    @import url('/styles/fonts.css');
    path {
      fill: #4d2f14;
      stroke: #3a1f0d;
      stroke-linecap: round;
      stroke-linejoin: round;
    }
    .faded {
      opacity: 99%;
    }
    .side {
      fill: #3f2710;
    }
    .shadow {
      fill: #3a1f0d;
    }
    .topping path {
      stroke-width: 0;
      fill: #3a1f0d;
    }
  </style>
  <g class="faded">
    <path d="M31,80 L16,42 H20 L35,80" class="side" />
    <path d="M16,42 L36,33 L40,33, L20,42 Z" />
    <path d="M35,80 L20,42 L40,33 L60,80" />
    <g>
      <path d="M47.5,80 L30,37.5" />
      <g>
        <path d="M24.25,51 L43,42.5" />
        <path d="M27.5,61 L45,52.5" />
        <path d="M31.25,70.5 L42,65.5" />
      </g>
    </g>
    <path d="M35,80 L46,49 L60,80 Z" class="shadow" />
  </g>
  <g>
    <path d="M71.5,80 L89,35 H85 L67.5,80" class="side" />
    <path d="M89,35 L64,25 H60 L85,35 Z" />
    <path d="M40,80 L60,25 L85,35 L67.5,80" />
    <g>
      <path d="M53.75,80 L72.5,30" />
      <g>
        <path d="M55,38.75 L79.25,48.5" />
        <path d="M50,52.5 L73.5,62" />
        <path d="M45,66.25 L69,75.5" />
      </g>
    </g>
  </g>
  <g>
    <path d="M10,80 H90" />
  </g>
</svg>
